<svg width="350" height="350" viewBox="0 0 350 350" fill="none" xmlns="http://www.w3.org/2000/svg">
<circle cx="175" cy="175" r="175" fill="#3330E4"/>
<path d="M139.5 255.25L154.5 251.5V91.5L139.5 87.75V84H209.5C237.167 84 257 88.5833 269 97.75C281 106.75 287 120.083 287 137.75C287 155.417 281 168.833 269 178C257 187 237.167 191.5 209.5 191.5H195.75V251.5L210.75 255.25V259H139.5V255.25ZM209.5 185.25C220 185.25 228.417 181.25 234.75 173.25C241.25 165.25 244.5 153.417 244.5 137.75C244.5 122.25 241.25 110.5 234.75 102.5C228.417 94.3333 220 90.25 209.5 90.25H195.75V185.25H209.5Z" fill="#FAEA48"/>
<path d="M210.5 255.25L195.5 251.5L195.5 91.5L210.5 87.75V84L140.5 84C112.833 84 93 88.5833 81 97.75C69 106.75 63 120.083 63 137.75C63 155.417 69 168.833 81 178C93 187 112.833 191.5 140.5 191.5L154.25 191.5L154.25 251.5L139.25 255.25L139.25 259H210.5V255.25ZM140.5 185.25C130 185.25 121.583 181.25 115.25 173.25C108.75 165.25 105.5 153.417 105.5 137.75C105.5 122.25 108.75 110.5 115.25 102.5C121.583 94.3333 130 90.25 140.5 90.25L154.25 90.25L154.25 185.25L140.5 185.25Z" fill="#FAEA48"/>
</svg>
