<svg width="1134" height="350" viewBox="0 0 1134 350" fill="none" xmlns="http://www.w3.org/2000/svg">
<ellipse cx="175.155" cy="175" rx="175.155" ry="175" fill="#FAEA48"/>
<path d="M139.613 255.25L154.613 251.5V91.5L139.613 87.75V84H209.613C237.279 84 257.113 88.5833 269.113 97.75C281.113 106.75 287.113 120.083 287.113 137.75C287.113 155.417 281.113 168.833 269.113 178C257.113 187 237.279 191.5 209.613 191.5H195.863V251.5L210.863 255.25V259H139.613V255.25ZM209.613 185.25C220.113 185.25 228.529 181.25 234.863 173.25C241.363 165.25 244.613 153.417 244.613 137.75C244.613 122.25 241.363 110.5 234.863 102.5C228.529 94.3333 220.113 90.25 209.613 90.25H195.863V185.25H209.613ZM273.236 255.25L293.236 247.75L361.986 81.5H369.486L440.736 251.5L453.236 255.25V259H423.236C414.569 259 407.486 257.083 401.986 253.25C396.486 249.25 392.402 244.083 389.736 237.75L376.986 207.75H317.236L300.736 247.75L319.486 255.25V259H273.236V255.25ZM319.736 201.5H374.486L346.986 135.75L319.736 201.5ZM460.657 255.25L475.657 251.5V91.5L460.657 87.75V84H526.907C555.241 84 575.657 88.3333 588.157 97C600.657 105.5 606.907 117.417 606.907 132.75C606.907 143.083 604.157 151.5 598.657 158C593.157 164.333 586.074 169.083 577.407 172.25C568.241 175.75 558.491 177.583 548.157 177.75V179C554.324 179.333 559.741 180.25 564.407 181.75C576.074 185.417 583.991 192 588.157 201.5L610.657 251.5L623.157 255.25V259H588.157C574.491 259 564.491 251.917 558.157 237.75L533.157 181.5H516.907V251.5L534.407 255.25V259H460.657V255.25ZM526.907 175.25C538.574 175.25 547.741 171.583 554.407 164.25C561.074 156.917 564.407 146.417 564.407 132.75C564.407 119.083 561.074 108.583 554.407 101.25C547.741 93.9167 538.574 90.25 526.907 90.25H516.907V175.25H526.907ZM713.265 262.75C696.932 262.75 682.598 259.25 670.265 252.25C658.098 245.083 648.682 234.667 642.015 221C635.348 207.333 632.015 190.833 632.015 171.5C632.015 152.167 635.348 135.667 642.015 122C648.682 108.333 658.098 98 670.265 91C682.598 83.8333 696.932 80.25 713.265 80.25C729.598 80.25 743.848 83.8333 756.015 91C768.348 98 777.848 108.333 784.515 122C791.182 135.667 794.515 152.167 794.515 171.5C794.515 190.833 791.182 207.333 784.515 221C777.848 234.667 768.348 245.083 756.015 252.25C743.848 259.25 729.598 262.75 713.265 262.75ZM713.265 257.75C719.765 257.75 725.765 255 731.265 249.5C736.932 244 741.598 234.833 745.265 222C748.932 209.167 750.765 192.333 750.765 171.5C750.765 150.667 748.932 133.833 745.265 121C741.598 108.167 736.932 99 731.265 93.5C725.765 88 719.765 85.25 713.265 85.25C706.765 85.25 700.682 88 695.015 93.5C689.515 99 684.932 108.167 681.265 121C677.598 133.833 675.765 150.667 675.765 171.5C675.765 192.333 677.598 209.167 681.265 222C684.932 234.833 689.515 244 695.015 249.5C700.682 255 706.765 257.75 713.265 257.75ZM818.323 255.25L833.323 251.5V91.5L818.323 87.75V84H889.573V87.75L874.573 91.5V252.75H928.323C928.323 242.25 930.99 232.5 936.323 223.5C938.657 219.667 941.407 216.5 944.573 214H952.073V259H818.323V255.25ZM953.411 255.25L973.411 247.75L1042.16 81.5H1049.66L1120.91 251.5L1133.41 255.25V259H1103.41C1094.74 259 1087.66 257.083 1082.16 253.25C1076.66 249.25 1072.58 244.083 1069.91 237.75L1057.16 207.75H997.411L980.911 247.75L999.661 255.25V259H953.411V255.25ZM999.911 201.5H1054.66L1027.16 135.75L999.911 201.5Z" fill="#3330E4"/>
<path d="M210.698 255.25L195.698 251.5L195.698 91.5L210.698 87.75V84L140.698 84C113.031 84 93.1975 88.5833 81.1975 97.75C69.1975 106.75 63.1975 120.083 63.1975 137.75C63.1975 155.417 69.1975 168.833 81.1975 178C93.1975 187 113.031 191.5 140.698 191.5L154.448 191.5L154.448 251.5L139.448 255.25L139.448 259H210.698V255.25ZM140.698 185.25C130.198 185.25 121.781 181.25 115.448 173.25C108.948 165.25 105.698 153.417 105.698 137.75C105.698 122.25 108.948 110.5 115.448 102.5C121.781 94.3333 130.198 90.25 140.698 90.25L154.448 90.25L154.448 185.25L140.698 185.25Z" fill="#3330E4"/>
</svg>
